<?xml version="1.0" standalone="no"?><!DOCTYPE svg PUBLIC "-//W3C//DTD SVG 1.1//EN" "http://www.w3.org/Graphics/SVG/1.1/DTD/svg11.dtd"><svg class="icon" width="200px" height="200.00px" viewBox="0 0 1024 1024" version="1.1" xmlns="http://www.w3.org/2000/svg"><path d="M919.06 470.79a404.28 404.28 0 0 0-42-2.17q-10.41 0-20.7 0.53c-21.61-167.54-165.18-297.4-338.51-297.4-188.22 0-341.34 153.12-341.34 341.33 0 173.43 130 317.06 297.67 338.56q-0.51 10.13-0.51 20.37a405.09 405.09 0 0 0 2.21 42.3c-202.79-21-361.43-193-361.43-401.23 0-222.43 181-403.39 403.4-403.39 208.15 0 380.01 158.47 401.21 361.1z" fill="#333333" /><path d="M612 526.7H390.08l-29.91 93.08h-86.25L410.2 257.26h100.06z m-102.3-56.34L497 430.68c-13.22-37.72-24.72-79.36-37.37-118.55h-2.3c-10.93 39.68-23.58 80.83-36.23 118.55l-12.65 39.68z" fill="#3CE4D6" /><path d="M906.47 544.48v228.74h-57.3V750.3H745.58v143h-57.76v-143H584.69v25.21h-55v-231h158.13v-79.3h57.76v79.3zM687.82 696.67v-98.56H584.69v98.56z m161.35 0v-98.56H745.58v98.56z" fill="#333333" /></svg>