<?xml version="1.0" standalone="no"?><!DOCTYPE svg PUBLIC "-//W3C//DTD SVG 1.1//EN" "http://www.w3.org/Graphics/SVG/1.1/DTD/svg11.dtd"><svg t="1685433659990" class="icon" viewBox="0 0 1024 1024" version="1.1" xmlns="http://www.w3.org/2000/svg" p-id="1719" xmlns:xlink="http://www.w3.org/1999/xlink" width="200" height="200"><path d="M0 512c0-159.061333 0-238.549333 25.984-301.269333a341.333333 341.333333 0 0 1 184.746667-184.746667C273.450667 0 352.938667 0 512 0c159.018667 0 238.549333 0 301.269333 25.984a341.333333 341.333333 0 0 1 184.746667 184.746667C1024 273.450667 1024 352.938667 1024 512c0 159.018667 0 238.549333-25.984 301.269333a341.333333 341.333333 0 0 1-184.746667 184.746667C750.549333 1024 671.018667 1024 512 1024c-159.061333 0-238.549333 0-301.269333-25.984a341.333333 341.333333 0 0 1-184.746667-184.746667C0 750.549333 0 671.018667 0 512z" fill="#2c2c2c" p-id="1720" data-spm-anchor-id="a313x.7781069.0.i7" class=""></path><path d="M538.453333 245.845333a34.133333 34.133333 0 0 0-52.906666 0L298.666667 475.434667a34.133333 34.133333 0 0 0 26.453333 55.68h85.76l67.84 301.866666c7.936 35.584 58.581333 35.584 66.56 0l67.84-301.866666h85.76a34.133333 34.133333 0 0 0 26.453333-55.68l-186.88-229.546667z" fill="#ffffff" p-id="1721" data-spm-anchor-id="a313x.7781069.0.i6" class="selected"></path></svg>